<svg width="893" height="795" viewBox="0 0 893 795" fill="none" xmlns="http://www.w3.org/2000/svg">
<mask id="mask0_1525_8563" style="mask-type:luminance" maskUnits="userSpaceOnUse" x="9" y="-20" width="884" height="771">
<path d="M876.543 -19.5264H388.842C385.593 18.3335 362.716 88.6635 243.868 126.312C76.0178 179.495 -5.34503 249.376 11.3238 373.128C27.9926 496.879 145.916 583.801 306.502 608.107C467.114 632.414 515.43 732.043 649.071 746.574C759.307 758.543 829.944 743.721 892.71 709.058V-3.33092C892.71 -12.2609 885.472 -19.5264 876.517 -19.5264H876.543Z" fill="white"/>
</mask>
<g mask="url(#mask0_1525_8563)">
<path d="M876.543 -19.5264H388.842C385.593 18.3335 362.716 88.6635 243.868 126.312C76.0178 179.495 -5.34503 249.376 11.3238 373.128C27.9926 496.879 145.916 583.801 306.502 608.107C467.114 632.414 515.43 732.043 649.071 746.574C759.307 758.543 829.944 743.721 892.71 709.058V-3.33092C892.71 -12.2609 885.472 -19.5264 876.517 -19.5264H876.543Z" fill="#F5F5F5"/>
<path d="M600.227 255.585L512.471 282.824L445.056 242.692C443.709 241.9 443.947 239.865 445.452 239.416C453.615 236.88 462.253 236.193 470.707 237.382L600.2 255.585H600.227Z" fill="#FFBB8A"/>
<path d="M463.178 236.853L526.393 274.475L591.271 254.343L470.733 237.408C468.223 237.065 465.714 236.88 463.178 236.88V236.853Z" fill="#FFBB8A"/>
<path d="M304.494 314.449L303.384 314.792C295.116 317.355 286.187 316.615 278.474 312.705L197.085 271.49C193.783 269.799 189.926 269.482 186.386 270.592L180.733 272.335C179.65 272.679 179.121 273.868 179.544 274.898L208.972 344.118L213.251 354.079L307.69 324.753L304.494 314.449Z" fill="#FFBB8A"/>
<path d="M389.423 358.438L750.457 246.338C771.168 239.918 791.059 231.173 809.815 220.288L857.312 192.705C857.999 192.309 858.633 191.834 859.214 191.279C865.29 185.466 861.908 175.189 853.561 174.132L800.384 167.342C789.818 165.995 779.093 166.919 768.896 170.09L214.995 342.084C213.727 342.48 212.618 343.273 211.799 344.33C209.21 347.791 210.768 352.784 214.889 354.132L224.505 357.276C278.025 374.739 335.666 375.135 389.423 358.438Z" fill="#FFBB8A"/>
<path d="M365.807 345.228L766.122 220.922C789.078 213.789 811.162 204.092 831.926 192.045L858.791 176.431C857.391 175.215 855.621 174.37 853.534 174.106L800.358 167.316C789.791 165.968 779.066 166.893 768.87 170.063L214.969 342.058C213.701 342.454 212.591 343.247 211.772 344.303C210.055 346.602 210.187 349.535 211.666 351.675C262.571 362.877 315.695 360.763 365.78 345.202L365.807 345.228Z" fill="#FBFBFB"/>
<path d="M784.244 183.987L826.933 170.724L800.305 167.237L780.889 173.26C777.93 174.185 776.266 177.329 777.191 180.288C778.115 183.247 781.259 184.912 784.217 183.987H784.244Z" fill="#FFBB8A"/>
<path d="M724.525 206.869L727.905 205.82C729.145 205.434 729.838 204.117 729.453 202.877L728.403 199.496C728.018 198.255 726.701 197.562 725.461 197.947L722.08 198.997C720.84 199.382 720.147 200.7 720.532 201.94L721.582 205.321C721.967 206.561 723.284 207.255 724.525 206.869Z" fill="#FFBB8A"/>
<path d="M701.109 214.257L704.49 213.208C705.73 212.822 706.423 211.505 706.038 210.265L704.988 206.884C704.603 205.643 703.286 204.95 702.046 205.335L698.665 206.385C697.425 206.77 696.732 208.088 697.117 209.328L698.167 212.709C698.552 213.949 699.869 214.643 701.109 214.257Z" fill="#FFBB8A"/>
<path d="M677.686 221.461L681.066 220.412C682.306 220.027 682.999 218.709 682.614 217.469L681.565 214.088C681.18 212.847 679.862 212.154 678.622 212.539L675.242 213.589C674.002 213.974 673.308 215.292 673.693 216.532L674.743 219.913C675.128 221.153 676.446 221.847 677.686 221.461Z" fill="#FFBB8A"/>
<path d="M654.27 228.77L657.651 227.72C658.891 227.335 659.584 226.018 659.199 224.777L658.149 221.396C657.764 220.156 656.446 219.463 655.206 219.848L651.826 220.898C650.586 221.283 649.893 222.6 650.278 223.841L651.327 227.222C651.713 228.462 653.03 229.155 654.27 228.77Z" fill="#FFBB8A"/>
<path d="M630.88 235.939L634.26 234.889C635.5 234.504 636.193 233.186 635.808 231.946L634.758 228.565C634.373 227.325 633.056 226.632 631.816 227.017L628.435 228.067C627.195 228.452 626.502 229.769 626.887 231.009L627.937 234.39C628.322 235.631 629.639 236.324 630.88 235.939Z" fill="#FFBB8A"/>
<path d="M607.464 243.195L610.845 242.145C612.085 241.76 612.778 240.442 612.393 239.202L611.343 235.821C610.958 234.581 609.641 233.887 608.401 234.273L605.02 235.322C603.78 235.707 603.087 237.025 603.472 238.265L604.521 241.646C604.906 242.887 606.224 243.58 607.464 243.195Z" fill="#FFBB8A"/>
<path d="M584.048 250.583L587.429 249.533C588.669 249.148 589.362 247.83 588.977 246.59L587.927 243.209C587.542 241.969 586.225 241.275 584.985 241.66L581.604 242.71C580.364 243.095 579.671 244.413 580.056 245.653L581.106 249.034C581.491 250.274 582.808 250.968 584.048 250.583Z" fill="#FFBB8A"/>
<path d="M560.633 257.865L564.013 256.815C565.253 256.43 565.947 255.112 565.561 253.872L564.512 250.491C564.127 249.251 562.809 248.558 561.569 248.943L558.189 249.993C556.949 250.378 556.256 251.695 556.641 252.935L557.69 256.316C558.075 257.557 559.393 258.25 560.633 257.865Z" fill="#FFBB8A"/>
<path d="M537.217 265.121L540.598 264.071C541.838 263.686 542.531 262.368 542.146 261.128L541.096 257.747C540.711 256.507 539.394 255.813 538.153 256.199L534.773 257.248C533.533 257.633 532.84 258.951 533.225 260.191L534.274 263.572C534.66 264.813 535.977 265.506 537.217 265.121Z" fill="#FFBB8A"/>
<path d="M513.819 272.264L517.199 271.214C518.439 270.829 519.133 269.512 518.748 268.271L517.698 264.89C517.313 263.65 515.995 262.957 514.755 263.342L511.375 264.392C510.135 264.777 509.442 266.095 509.827 267.335L510.876 270.716C511.261 271.956 512.579 272.649 513.819 272.264Z" fill="#FFBB8A"/>
<path d="M490.403 279.546L493.784 278.497C495.024 278.112 495.717 276.794 495.332 275.554L494.282 272.173C493.897 270.932 492.58 270.239 491.34 270.624L487.959 271.674C486.719 272.059 486.026 273.377 486.411 274.617L487.461 277.998C487.846 279.238 489.163 279.932 490.403 279.546Z" fill="#FFBB8A"/>
<path d="M466.988 286.908L470.368 285.858C471.608 285.473 472.301 284.155 471.916 282.915L470.867 279.534C470.482 278.294 469.164 277.601 467.924 277.986L464.544 279.036C463.304 279.421 462.61 280.738 462.995 281.979L464.045 285.36C464.43 286.6 465.748 287.293 466.988 286.908Z" fill="#FFBB8A"/>
<path d="M443.572 294.19L446.953 293.14C448.193 292.755 448.886 291.438 448.501 290.198L447.451 286.816C447.066 285.576 445.749 284.883 444.509 285.268L441.128 286.318C439.888 286.703 439.195 288.021 439.58 289.261L440.63 292.642C441.015 293.882 442.332 294.575 443.572 294.19Z" fill="#FFBB8A"/>
<path d="M637.5 251.331L502.38 293.286L452.743 401.001C451.37 403.96 454.17 407.13 457.287 406.179L460.589 405.149C469.623 402.348 477.892 397.592 484.866 391.199L637.527 251.331H637.5Z" fill="#FFBB8A"/>
<path d="M480.639 393.101C480.349 393.735 480.269 394.369 480.296 394.977C481.854 393.788 483.387 392.546 484.839 391.199L637.5 251.331L530.698 284.488L480.639 393.075V393.101Z" fill="#FFBB8A"/>
<path d="M258.609 335.928L211.059 350.697L192.33 391.305L201.153 388.557L258.609 335.928Z" fill="#FFBB8A"/>
<path d="M235.679 219.812C238.426 214.74 245.929 211.12 254.778 211.12C257.235 211.12 259.586 211.411 261.752 211.939C262.835 208.874 265.635 206.206 269.466 204.383C271.817 192.97 287.085 184.145 305.603 184.145C319.578 184.145 331.703 189.165 337.832 196.536C341.213 195.295 345.149 194.555 349.349 194.555C362.108 194.555 372.437 201.16 372.437 209.297C372.437 209.931 372.358 210.565 372.226 211.199C372.913 211.147 373.599 211.12 374.313 211.12C383.162 211.12 390.665 214.766 393.412 219.812H235.705H235.679Z" fill="#FBFBFB"/>
<path d="M-39.1317 301.714C-36.3844 296.642 -28.8821 293.022 -20.0326 293.022C-17.5758 293.022 -15.2247 293.313 -13.0586 293.841C-11.9755 290.776 -9.17539 288.108 -5.345 286.285C-2.99393 274.872 12.2748 266.047 30.7927 266.047C44.7671 266.047 56.8923 271.067 63.0209 278.438C66.4022 277.197 70.3382 276.457 74.5384 276.457C87.2976 276.457 97.6265 283.062 97.6265 291.199C97.6265 291.833 97.5472 292.467 97.4151 293.101C98.102 293.049 98.7888 293.022 99.5021 293.022C108.352 293.022 115.854 296.668 118.601 301.714H-39.1053H-39.1317Z" fill="#FBFBFB"/>
<path d="M604.427 352.837C607.174 347.764 614.676 344.145 623.526 344.145C625.983 344.145 628.334 344.435 630.5 344.964C631.583 341.899 634.383 339.231 638.214 337.408C640.565 325.994 655.833 317.17 674.351 317.17C688.326 317.17 700.451 322.19 706.579 329.561C709.961 328.319 713.897 327.579 718.097 327.579C730.856 327.579 741.185 334.184 741.185 342.322C741.185 342.956 741.106 343.59 740.974 344.224C741.661 344.171 742.347 344.145 743.061 344.145C751.91 344.145 759.412 347.791 762.16 352.837H604.453H604.427Z" fill="#FBFBFB"/>
<path d="M658.396 177.25C655.622 172.124 648.014 168.425 639.032 168.425C636.549 168.425 634.145 168.716 631.953 169.244C630.87 166.127 628.017 163.432 624.133 161.583C621.73 149.984 606.249 141.054 587.467 141.054C573.282 141.054 560.998 146.153 554.764 153.63C551.33 152.362 547.341 151.622 543.088 151.622C530.144 151.622 519.656 158.333 519.656 166.576C519.656 167.236 519.736 167.87 519.868 168.505C519.181 168.452 518.467 168.425 517.754 168.425C508.773 168.425 501.165 172.124 498.391 177.25H658.422H658.396Z" fill="#FBFBFB"/>
<path d="M639.349 38.5182C641.542 34.4759 647.539 31.5697 654.592 31.5697C656.547 31.5697 658.422 31.8075 660.166 32.2038C661.037 29.7467 663.256 27.6331 666.321 26.18C668.196 17.0651 680.401 10.011 695.167 10.011C706.315 10.011 716.01 14.0268 720.897 19.8921C723.592 18.8881 726.735 18.3069 730.09 18.3069C740.26 18.3069 748.529 23.5909 748.529 30.0902C748.529 30.5922 748.45 31.1206 748.37 31.5961C748.925 31.5697 749.48 31.5433 750.035 31.5433C757.114 31.5433 763.084 34.4495 765.277 38.4918H639.349V38.5182Z" fill="#FBFBFB"/>
<path d="M440.222 20.0243C441.199 18.2277 443.841 16.9331 446.985 16.9331C447.856 16.9331 448.675 17.0388 449.468 17.2238C449.838 16.1405 450.841 15.1894 452.189 14.5553C453.034 10.5131 458.423 7.39551 464.974 7.39551C469.914 7.39551 474.22 9.16566 476.386 11.7812C477.575 11.3321 478.975 11.0679 480.454 11.0679C484.971 11.0679 488.617 13.3929 488.617 16.2991C488.617 16.5368 488.591 16.7482 488.538 16.9596C488.775 16.9596 489.013 16.9596 489.277 16.9596C492.421 16.9596 495.063 18.2541 496.04 20.0507H440.196L440.222 20.0243Z" fill="#FBFBFB"/>
<path d="M959.729 294.634C957.246 290.037 950.43 286.734 942.399 286.734C940.154 286.734 938.041 286.998 936.059 287.474C935.082 284.674 932.546 282.269 929.059 280.631C926.919 270.248 913.051 262.243 896.25 262.243C883.57 262.243 872.554 266.787 866.98 273.498C863.89 272.362 860.35 271.701 856.519 271.701C844.949 271.701 835.571 277.699 835.571 285.096C835.571 285.677 835.65 286.259 835.756 286.814C835.149 286.761 834.514 286.761 833.88 286.761C825.85 286.761 819.034 290.063 816.551 294.66H959.755L959.729 294.634Z" fill="#FBFBFB"/>
<path d="M1034.88 597.777H-21.7496V787.261H1034.88V597.777Z" fill="#FFBB8A"/>
<path d="M1034.88 527.87H-21.7496V568.821H1034.88V527.87Z" fill="#FFBB8A"/>
<path opacity="0.1" d="M892.736 -19.5264H-37.1769V773.1H892.736V-19.5264Z" fill="#FFBB8A"/>
<g opacity="0.39">
<path d="M-49.4341 766.574H-90.8287L446.641 -60.636H488.036L-49.4341 766.574Z" fill="#FBFBFB"/>
<path d="M631.53 766.574H590.135L1127.61 -60.636H1169L631.53 766.574Z" fill="#FBFBFB"/>
<path d="M555.054 766.574H399.435L936.905 -60.636H1092.55L555.054 766.574Z" fill="#FBFBFB"/>
<path d="M-124.246 766.574H-279.892L257.605 -60.636H413.251L-124.246 766.574Z" fill="#FBFBFB"/>
</g>
<path d="M217.742 -111.098H194.998V763.325H217.742V-111.098Z" fill="#FBFBFB"/>
<path d="M802.603 -111.098H779.859V763.325H802.603V-111.098Z" fill="#FBFBFB"/>
<path d="M1104.73 129.007V105.731L-107.154 105.731V129.007L1104.73 129.007Z" fill="#FBFBFB"/>
</g>
<path d="M415.892 794.263C529.486 794.263 621.571 785.285 621.571 774.21C621.571 763.135 529.486 754.157 415.892 754.157C302.299 754.157 210.214 763.135 210.214 774.21C210.214 785.285 302.299 794.263 415.892 794.263Z" fill="#F5F5F5"/>
<path d="M500.134 492.652L427.093 511.093C427.093 511.093 445.954 592.995 453.298 623.008C460.827 653.734 456.653 752.598 456.653 752.598H477.548L488.855 622.638L500.161 492.678L500.134 492.652Z" fill="#236B44"/>
<path d="M484.232 359.548C484.232 359.548 491.681 385.254 503.727 428.874C503.727 428.874 519.234 434.501 561.183 437.487L559.862 451.436C559.862 451.436 513.607 459.812 488.089 449.27C462.57 438.755 441.199 345.439 484.232 359.548Z" fill="#FFA689"/>
<path d="M524.676 449.455L546.548 474.792L581.894 428.768L567.602 401.186L524.676 449.455Z" fill="#5EB083"/>
<path d="M520.845 460.076L557.96 410.301L581.894 428.768L546.548 474.792L520.845 460.076Z" fill="#5EB083"/>
<path d="M575.739 438.993C575.58 438.227 574.603 437.936 573.942 438.359C572.674 439.178 571.142 441.08 567.549 441.186C563.957 441.291 559.255 438.781 557.696 440.419C557.696 440.419 549.93 450.327 557.802 460.129C557.802 460.129 581.629 466.337 575.739 438.993Z" fill="#FFA689"/>
<path d="M469.518 433.92C469.518 433.92 488.089 431.172 503.331 418.042C503.331 418.042 497.942 389.059 490.44 371.569C482.937 354.079 471.103 338.782 451.872 350.169C432.64 361.556 438.241 387.659 469.518 433.92Z" fill="#5EB083"/>
<path d="M407.465 422.242C407.465 422.242 423.315 432.308 443.418 432.308C443.418 432.308 458.264 406.84 463.997 388.689C469.729 370.565 470.759 351.225 448.754 347.289C426.75 343.352 413.938 366.787 407.439 422.242H407.465Z" fill="#5EB083"/>
<path d="M490.07 500.525C490.07 500.525 444.924 485.281 416.949 510.512C416.949 510.512 422.074 534.21 437.527 562.559C463.627 610.511 476.994 626.02 476.994 626.02C476.994 626.02 448.543 651.33 393.729 714.606C393.729 714.606 397.163 727.552 408.205 731.7C408.205 731.7 488.538 655.927 512.762 635.716C520.687 629.111 519.075 624.144 515.958 609.507C510.675 584.725 493.187 511.806 490.096 500.525H490.07Z" fill="#236B44"/>
<path d="M451.634 312.679L450.656 332.494C450.656 332.494 466.216 345.307 479.028 344.726L484.945 318.306L448.675 293.656L451.634 312.679Z" fill="#FFA689"/>
<path d="M459.11 309.218C459.11 309.218 467.378 324.647 482.462 329.35L484.945 318.28L459.11 309.191V309.218Z" fill="#ED8A6D"/>
<path d="M427.252 582.348L390.374 554.342C388.314 552.757 387.891 549.825 389.476 547.737C391.061 545.677 393.993 545.254 396.08 546.839L432.957 574.844C435.018 576.43 435.441 579.362 433.856 581.449C432.271 583.51 429.338 583.933 427.252 582.348Z" fill="#07150E"/>
<path d="M396.582 557.46L315.51 664.25" stroke="#07150E" stroke-width="0.94" stroke-miterlimit="10"/>
<path d="M422.549 577.249L341.477 684.012" stroke="#07150E" stroke-width="0.94" stroke-miterlimit="10"/>
<path d="M419.3 363.062C419.3 363.062 379.834 365.043 373.494 387.315C367.154 409.587 367.999 497.117 367.999 497.117C367.999 497.117 376.32 517.011 403.001 519.574C403.001 519.574 416.923 522.797 416.104 493.576C415.311 464.382 419.274 363.062 419.274 363.062H419.3Z" fill="#050D08"/>
<path d="M397.084 367.368C397.084 367.368 393.121 370.829 391.008 375.373C383.268 392.018 385.645 436.906 382.37 440.525C379.622 443.537 374.973 444.092 370.377 445.36C368.422 445.888 366.124 444.647 366.229 442.744C367.973 404.356 365.014 372.414 397.084 367.368Z" fill="#18432B"/>
<path d="M368.369 450.776C368.369 450.776 378.988 448.345 380.838 450.882C383.479 454.501 382.449 495.69 379.49 496.826C376.558 497.962 366.203 497.064 365.622 496.192C363.429 492.942 362.055 452.123 368.369 450.802V450.776Z" fill="#18432B"/>
<path d="M501.904 263.009C501.904 263.009 512.841 316.245 496.595 322.745C480.349 329.244 456.574 312.679 450.762 295.823C445.796 281.45 446.324 247.315 501.904 263.009Z" fill="#FFA689"/>
<path d="M485.79 271.358C485.79 271.358 490.202 282.666 481.485 285.334C474.379 287.5 472.318 292.732 472.318 292.732C472.318 292.732 470.865 281.371 463.125 280.948C454.698 280.499 455.174 292.52 462.57 298.438C462.57 298.438 462.57 312.705 451.634 312.705C451.634 312.705 426.961 284.383 437.739 267.289C436.154 262.084 443.524 248.187 462.438 246.417C481.352 244.647 486.794 249.059 501.165 244.594C514.901 240.341 523.962 273.286 485.817 271.384L485.79 271.358Z" fill="#050D08"/>
<path opacity="0.22" d="M454.619 496.113L503.304 622.612L400.042 721.792" stroke="#FBFBFB" stroke-width="0.25" stroke-miterlimit="10"/>
<path d="M317.702 774.13C317.702 780.656 312.419 785.967 305.868 785.967C299.316 785.967 294.033 780.683 294.033 774.13C294.033 767.578 299.316 762.294 305.868 762.294C312.419 762.294 317.702 767.578 317.702 774.13Z" fill="#07150E"/>
<path d="M273.64 753.259C273.64 759.784 268.356 765.095 261.805 765.095C255.254 765.095 249.97 759.811 249.97 753.259C249.97 746.706 255.254 741.422 261.805 741.422C268.356 741.422 273.64 746.706 273.64 753.259Z" fill="#07150E"/>
<path d="M369.531 661.978C369.531 661.978 373.177 714.818 354.263 743.985C335.348 773.153 307.743 768.424 307.743 768.424L313.423 759.494C313.423 759.494 333.367 767.658 345.175 736.508C357.01 705.359 354.632 673.021 354.632 673.021L369.505 661.978H369.531Z" fill="#07150E"/>
<path d="M347.659 647.05C347.659 647.05 359.493 648.186 368.871 659.441C376.109 668.107 321.929 751.911 309.751 770.511C308.298 772.73 305.603 773.761 303.041 773.074C294.324 770.749 274.168 764.487 259.533 753.444C259.533 753.444 315.457 655.293 347.659 647.05Z" fill="#050D08"/>
<path d="M351.859 647.975C351.859 647.975 307.373 621.212 283.493 643.431C267.643 658.173 237.105 699.705 225.271 716.086C222.418 720.049 222.867 725.491 226.354 728.926C233.988 736.403 249.997 748.239 261.277 754.395C262.941 755.319 265.028 754.765 266.084 753.179C275.753 738.516 322.008 669.666 351.885 647.949L351.859 647.975Z" fill="#18432B"/>
<path d="M253.352 681.449C251.608 680.075 248.993 680.815 247.646 682.585C241.993 690.009 227.86 708.582 225.773 712.096C221.678 718.965 238.426 733.496 258.899 744.302C265.292 747.684 273.111 733.021 281.353 721.792C286.795 714.368 291.497 707.843 290.89 705.438C290.203 702.849 279.557 699.52 269.809 693.497C263.443 689.534 258.001 685.121 253.352 681.475V681.449Z" fill="#236B44"/>
<path d="M351.859 647.975C351.859 647.975 331.756 633.735 303.252 633.285C279.029 632.916 252.427 674.844 252.427 674.844C248.993 679.256 290.493 704.408 295.116 698.675C313.449 676.086 331.386 658.939 340.526 650.67C341.16 650.141 346.074 646.178 351.885 647.975H351.859Z" fill="#236B44"/>
<path d="M276.466 748.978L301.245 711.594C302.143 710.247 303.913 709.745 305.366 710.458L329.616 721.951C331.148 722.691 331.677 724.593 330.752 726.02L306.74 762.426C305.366 764.513 302.671 765.359 300.347 764.381L278.368 755.214C275.911 754.183 275.013 751.198 276.466 748.978Z" fill="#103F26"/>
<path d="M445.135 335.004C445.135 335.004 420.885 339.389 416.949 375.664C413.013 411.939 416.949 514.607 416.949 514.607C416.949 514.607 439.667 523.405 465.423 510.855C482.013 502.771 492.606 502.321 497.097 501.318C498.919 500.895 500.187 499.336 500.214 497.46C500.267 493.497 500.319 485.888 500.293 474.422C500.214 442.375 496.753 387.844 482.964 350.433C482.964 350.433 459.559 336.14 445.162 335.004H445.135Z" fill="#5EB083"/>
<path d="M461.487 401.265C441.252 400.261 426.274 408.372 415.206 420.816C414.994 463.616 416.949 514.607 416.949 514.607C416.949 514.607 430.474 519.811 448.437 516.456C435.573 496.773 435.467 478.728 446.588 456.588C455.491 438.887 461.487 401.265 461.487 401.265Z" fill="#5EB083"/>
<path d="M416.949 375.664C416.949 375.664 436.18 344.356 450.26 349.64C467.563 356.14 471.076 389.587 445.135 424.62L431.319 439.23L427.78 452.229C427.78 452.229 462.966 421.186 471.235 391.014C479.503 360.842 468.646 348.874 453.483 343.696C434.859 337.328 425.931 348.689 414.571 364.383L416.923 375.611L416.949 375.664Z" fill="#050D08"/>
<path d="M413.779 408.002C413.779 408.002 407.862 433.629 405.907 465.967C404.243 493.154 403.978 526.628 403.952 536.588C403.952 538.305 403.292 539.943 402.077 541.132C398.854 544.303 392.646 552.149 393.702 564.725C394.072 569.138 396.001 575.241 406.964 578.754C408.469 579.23 412.432 580.895 412.432 573.206C412.432 565.518 415.549 560.34 418.692 557.777C421.836 555.214 425.059 561.978 425.059 567.473C425.059 572.968 428.757 569.481 429.497 565.571C430.236 561.661 429.655 551.146 421.361 540.208C421.361 540.208 421.202 538.279 422.259 525.122C423.289 511.965 425.508 467.421 430.236 456.034C434.965 444.647 448.57 412.176 448.57 412.176L413.832 407.976L413.779 408.002Z" fill="#FFA689"/>
<path d="M407.465 424.779C407.465 424.779 423.315 432.308 443.418 432.308C443.418 432.308 458.264 406.84 463.997 388.689C469.729 370.565 470.759 351.225 448.754 347.289C426.75 343.352 413.938 369.323 407.439 424.779H407.465Z" fill="#5EB083"/>
<path d="M457.049 750.432C457.049 750.432 451.238 758.886 454.091 771.118C454.513 772.941 456.072 774.183 457.789 774.183H520.555C521.849 774.183 522.879 772.968 522.721 771.594C522.298 768.027 519.366 761.819 504.44 759.996C500.346 759.494 496.436 757.961 493.187 755.425C487.824 751.224 479.635 745.465 476.809 747.05C476.809 747.05 467.801 752.492 457.023 750.432H457.049Z" fill="#050D08"/>
<path d="M450.868 328.161C448.622 328.24 445.109 335.004 445.109 335.004C445.109 335.004 451.766 340.129 467.906 346.047C475.382 348.795 479.133 352.652 480.85 355.083C481.379 355.823 482.515 355.532 482.62 354.634C483.096 351.041 483.307 344.726 479.794 341.08C479.794 341.08 457.551 335.004 450.815 328.161H450.868Z" fill="#236B44"/>
<path d="M394.046 714.791C394.046 714.791 383.876 716.086 376.611 726.337C375.528 727.842 375.634 729.85 376.796 731.145L418.534 778.041C419.406 779.018 420.991 778.965 421.915 777.935C424.293 775.24 426.961 768.926 418.455 756.561C416.104 753.179 414.651 749.243 414.387 745.121C413.964 738.305 412.828 728.371 409.737 727.314C409.737 727.314 399.699 724.197 394.072 714.791H394.046Z" fill="#050D08"/>
<path d="M419.934 564.963L429.814 572.467L428.995 576.852L417.477 571.093L419.934 564.963Z" fill="#07150E"/>
<path d="M150.142 655.584C150.142 658.411 134.689 660.709 115.616 660.709C96.5434 660.709 81.0897 658.411 81.0897 655.584C81.0897 652.757 96.5434 650.458 115.616 650.458C134.689 650.458 150.142 652.757 150.142 655.584Z" fill="#103F26"/>
<path d="M115.616 779.943C151.448 779.943 180.495 776.595 180.495 772.466C180.495 768.337 151.448 764.989 115.616 764.989C79.7844 764.989 50.7372 768.337 50.7372 772.466C50.7372 776.595 79.7844 779.943 115.616 779.943Z" fill="#F5F5F5"/>
<path d="M124.017 664.593C124.017 664.593 116.858 643.034 125.998 633.285C135.138 623.536 120.503 607.077 142.165 597.803C163.826 588.504 163.087 566.786 181.922 566.707C200.783 566.601 215.603 557.83 221.758 566.152C227.913 574.474 199.33 578.517 199.277 592.651C199.224 606.786 196.424 608.134 188.711 616.958C184.378 621.898 186.386 632.81 176.77 643.404C169.242 651.7 149.403 648.9 124.017 664.593Z" fill="#236B44"/>
<path d="M124.017 664.593C124.017 664.593 133.051 642.955 153.841 631.515C174.631 620.049 167.287 573.418 221.784 566.152" stroke="#FBFBFB" stroke-width="0.4" stroke-linecap="round" stroke-linejoin="round"/>
<path d="M128.27 674.844C128.27 674.844 124.466 644.012 131.44 619.23C138.414 594.448 127.002 586.522 107.48 580.102C87.9316 573.708 100.215 553.286 94.4037 534.237C88.5921 515.188 73.9573 544.778 69.0966 518.86C64.236 492.942 56.8394 479.547 50.9221 480.657C45.0048 481.767 43.0236 487.5 38.8234 517.143C34.5967 546.786 14.0183 544.593 31.8758 568.107C49.7334 591.595 54.277 584.963 44.3709 605.359C23.1848 648.926 99.0265 636.033 128.296 674.844H128.27Z" fill="#5EB083"/>
<path d="M128.27 674.844C128.27 674.844 118.548 622.982 90.5205 597.381C62.4926 571.78 43.9218 544.382 50.9221 480.684" stroke="#FBFBFB" stroke-width="0.48" stroke-linecap="round" stroke-linejoin="round"/>
<path d="M118.522 670.617C118.522 670.617 88.0901 589.983 67.1418 595.056C46.1935 600.155 44.0802 601.211 25.0075 585.941C5.90835 570.67 -7.96026 587.341 6.64806 599.573C21.2564 611.806 21.7582 612.916 7.83675 626.363C-6.08474 639.838 27.1208 654.897 56.3375 650.379C85.5541 645.835 113.952 663.933 118.522 670.617Z" fill="#236B44"/>
<path d="M118.522 670.617C118.522 670.617 104.257 640.63 65.821 632.863C27.385 625.095 45.3482 599.758 0.572266 588.028" stroke="#FBFBFB" stroke-width="0.44" stroke-linecap="round" stroke-linejoin="round"/>
<path d="M115.616 660.736C99.6342 660.736 86.241 659.124 82.2786 656.931C86.1882 662.004 98.736 684.593 106.185 771.488C106.185 772.757 110.412 773.761 115.616 773.761C120.82 773.761 125.047 772.73 125.047 771.488C132.496 684.593 145.044 662.004 148.954 656.931C145.018 659.124 131.598 660.736 115.616 660.736Z" fill="#FFBB8A"/>
</svg>
