<svg width="41" height="40" viewBox="0 0 41 40" fill="none" xmlns="http://www.w3.org/2000/svg">
<ellipse cx="20.5" cy="20" rx="20.5" ry="20" fill="#272A2D"/>
<path fill-rule="evenodd" clip-rule="evenodd" d="M15.2397 12.0657C13.9762 12.4611 13.5791 14.2405 14.5156 15.3101C15.3864 16.3046 16.8733 15.8679 17.2709 14.5009C17.6785 13.0993 16.49 11.6744 15.2397 12.0657ZM23.7326 17.1297C23.504 17.1895 23.1537 17.3328 22.9542 17.4482C22.5538 17.68 21.8986 18.3455 21.8155 18.605C21.7807 18.7136 21.7505 18.515 21.7282 18.0315L21.6941 17.2919H20.3307H18.9673L18.9497 22.6459L18.9322 28L20.3814 27.979L21.8305 27.958L21.8646 24.6881C21.898 21.4821 21.9017 21.4106 22.0554 21.0298C22.3614 20.2717 22.7629 19.9824 23.5133 19.9796C24.2735 19.9767 24.6151 20.2284 24.8779 20.9848C25.0229 21.4025 25.0293 21.5355 25.0543 24.6686L25.0802 27.919H26.5401H28L27.9989 24.9411C27.9975 20.9071 27.9125 19.8795 27.4951 18.849C27.1723 18.0521 26.5261 17.4513 25.7265 17.2041C25.1931 17.0393 24.218 17.0029 23.7326 17.1297ZM14.2293 22.6249V28L15.678 27.979L17.1266 27.958V22.6249V17.2919L15.678 17.2709L14.2293 17.2498V22.6249Z" fill="#707882"/>
</svg>
