<svg width="363" height="80" viewBox="0 0 363 80" fill="none" xmlns="http://www.w3.org/2000/svg">
<path d="M127 54C121.472 67.5177 108.554 77 93.5 77C78.4457 77 65.5277 67.5177 60 54" stroke="url(#paint0_linear_1502_9)" stroke-width="5.05" stroke-linecap="round"/>
<path d="M127 26C121.472 12.4823 108.554 3 93.5 3C78.4457 3 65.5277 12.4823 60 26" stroke="url(#paint1_linear_1502_9)" stroke-width="5.05" stroke-linecap="round"/>
<path d="M6.55259 48.8781C5.56263 48.8781 4.6591 48.7231 3.84199 48.413C3.04059 48.0875 2.35705 47.6224 1.79136 47.0178C1.22567 46.4132 0.785683 45.6846 0.47141 44.832C0.157137 43.9639 0 42.9795 0 41.8789V31.8567H3.18202V42.0649C3.18202 42.623 3.25273 43.1345 3.39415 43.5996C3.53557 44.0647 3.74771 44.4677 4.03055 44.8088C4.3134 45.1498 4.66696 45.4211 5.09122 45.6226C5.51549 45.8087 6.00262 45.9017 6.55259 45.9017C7.11829 45.9017 7.61327 45.8087 8.03753 45.6226C8.4618 45.4211 8.81536 45.1498 9.09821 44.8088C9.38105 44.4677 9.59319 44.0647 9.73461 43.5996C9.87603 43.1345 9.94674 42.623 9.94674 42.0649V31.8567H13.1288V41.8789C13.1288 42.9175 12.9716 43.8709 12.6573 44.739C12.3588 45.5916 11.9188 46.328 11.3374 46.9481C10.7717 47.5527 10.0803 48.0255 9.2632 48.3665C8.4618 48.7076 7.55827 48.8781 6.55259 48.8781Z" fill="#32333D"/>
<path d="M16.1445 31.8567H22.2964C23.1449 31.8567 23.9149 31.9885 24.6063 32.252C25.2977 32.5156 25.887 32.8799 26.3741 33.3449C26.8769 33.81 27.2619 34.3681 27.529 35.0192C27.7962 35.6547 27.9297 36.3523 27.9297 37.112C27.9297 37.67 27.8354 38.1971 27.6469 38.6932C27.4583 39.1737 27.199 39.6156 26.8691 40.0186C26.5391 40.4062 26.1541 40.755 25.7141 41.065C25.2741 41.3595 24.8106 41.5921 24.3235 41.7626L24.2999 41.9254L28.8254 48.32V48.506H25.172L20.8114 42.2509H19.3265V48.506H16.1445V31.8567ZM22.2728 39.3675C22.9956 39.3675 23.5849 39.1505 24.0406 38.7164C24.512 38.2824 24.7477 37.732 24.7477 37.0654C24.7477 36.7709 24.6927 36.4841 24.5827 36.2051C24.4884 35.926 24.3392 35.678 24.1349 35.461C23.9306 35.2439 23.6713 35.0734 23.3571 34.9494C23.0585 34.8099 22.7128 34.7401 22.32 34.7401H19.3265V39.3675H22.2728Z" fill="#32333D"/>
<path d="M45.3366 44.8631C44.6273 46.098 43.6676 47.0962 42.4576 47.8577C41.2684 48.6192 39.808 49 38.0765 49C36.9082 49 35.8233 48.8045 34.8219 48.4134C33.8414 48.0018 32.986 47.4358 32.2558 46.7154C31.5256 45.9951 30.9519 45.1512 30.5347 44.1839C30.1383 43.196 29.9401 42.1154 29.9401 40.9423C29.9401 39.8515 30.1383 38.8224 30.5347 37.855C30.9311 36.8671 31.4839 36.013 32.1932 35.2926C32.9026 34.5517 33.7371 33.9651 34.6967 33.5329C35.6773 33.1007 36.7517 32.8846 37.92 32.8846C39.1509 32.8846 40.2462 33.0904 41.2058 33.502C42.1655 33.8931 42.9687 34.4488 43.6154 35.1691C44.2622 35.8689 44.7524 36.7025 45.0862 37.6698C45.42 38.6371 45.5869 39.6868 45.5869 40.8188C45.5869 40.9629 45.5869 41.0864 45.5869 41.1893C45.5661 41.3128 45.5556 41.426 45.5556 41.5289C45.5348 41.6318 45.5243 41.745 45.5243 41.8685H33.977C34.0604 42.4859 34.2273 43.021 34.4777 43.4738C34.7489 43.906 35.0723 44.2765 35.4478 44.5852C35.8442 44.8734 36.2719 45.0895 36.7308 45.2336C37.1898 45.357 37.6592 45.4188 38.139 45.4188C39.0778 45.4188 39.8498 45.213 40.4548 44.8013C41.0806 44.3691 41.5709 43.834 41.9256 43.196L45.3366 44.8631ZM41.6126 38.9973C41.5918 38.7298 41.4979 38.4313 41.331 38.102C41.185 37.7727 40.9555 37.464 40.6425 37.1758C40.3505 36.8877 39.9749 36.651 39.516 36.4658C39.0779 36.2805 38.5459 36.1879 37.92 36.1879C37.0438 36.1879 36.2719 36.4349 35.6043 36.9289C34.9367 37.4228 34.4673 38.1123 34.196 38.9973H41.6126Z" fill="#32333D"/>
<path d="M48.2051 48.506V26.4013H52.3046V48.506H48.2051Z" fill="#32333D"/>
<path d="M62.9219 32.8846C64.1111 32.8846 65.1959 33.0904 66.1765 33.502C67.1779 33.8931 68.0332 34.4488 68.7425 35.1691C69.4727 35.8689 70.036 36.7128 70.4324 37.7007C70.8496 38.6886 71.0583 39.7691 71.0583 40.9423C71.0583 42.1154 70.8496 43.196 70.4324 44.1839C70.036 45.1718 69.4727 46.026 68.7425 46.7463C68.0332 47.4461 67.1779 48.0018 66.1765 48.4134C65.1959 48.8045 64.1111 49 62.9219 49C61.7328 49 60.6375 48.8045 59.6361 48.4134C58.6555 48.0018 57.8002 47.4461 57.07 46.7463C56.3607 46.026 55.7974 45.1718 55.3801 44.1839C54.9838 43.196 54.7856 42.1154 54.7856 40.9423C54.7856 39.7691 54.9838 38.6886 55.3801 37.7007C55.7974 36.7128 56.3607 35.8689 57.07 35.1691C57.8002 34.4488 58.6555 33.8931 59.6361 33.502C60.6375 33.0904 61.7328 32.8846 62.9219 32.8846ZM62.9219 45.2644C63.4435 45.2644 63.9442 45.1718 64.424 44.9866C64.9247 44.7808 65.3628 44.4926 65.7383 44.1221C66.1139 43.7517 66.4059 43.2989 66.6146 42.7638C66.8441 42.2286 66.9588 41.6215 66.9588 40.9423C66.9588 40.2631 66.8441 39.6559 66.6146 39.1208C66.4059 38.5857 66.1139 38.1329 65.7383 37.7624C65.3628 37.3919 64.9247 37.1141 64.424 36.9289C63.9442 36.723 63.4435 36.6201 62.9219 36.6201C62.3795 36.6201 61.8684 36.723 61.3885 36.9289C60.9087 37.1141 60.481 37.3919 60.1055 37.7624C59.73 38.1329 59.4275 38.5857 59.198 39.1208C58.9893 39.6559 58.885 40.2631 58.885 40.9423C58.885 41.6215 58.9893 42.2286 59.198 42.7638C59.4275 43.2989 59.73 43.7517 60.1055 44.1221C60.481 44.4926 60.9087 44.7808 61.3885 44.9866C61.8684 45.1718 62.3795 45.2644 62.9219 45.2644Z" fill="#32333D"/>
<path d="M88.2439 44.647C87.5763 45.923 86.6375 46.9727 85.4274 47.796C84.2383 48.5987 82.7466 49 80.9524 49C79.7633 49 78.668 48.8045 77.6666 48.4134C76.6861 48.0018 75.8307 47.4358 75.1005 46.7154C74.3912 45.9951 73.8279 45.1512 73.4107 44.1839C73.0143 43.196 72.8161 42.1154 72.8161 40.9423C72.8161 39.7691 73.0143 38.6886 73.4107 37.7007C73.8279 36.7128 74.3912 35.8689 75.1005 35.1691C75.8307 34.4488 76.6861 33.8931 77.6666 33.502C78.668 33.0904 79.7633 32.8846 80.9524 32.8846C82.7258 32.8846 84.2174 33.2859 85.4274 34.0886C86.6375 34.8913 87.5241 35.9306 88.0874 37.2067L84.3322 38.7503C83.9775 38.0506 83.5185 37.5257 82.9552 37.1758C82.4128 36.8054 81.7244 36.6201 80.8899 36.6201C80.3474 36.6201 79.8363 36.723 79.3565 36.9289C78.8766 37.1347 78.449 37.4228 78.0734 37.7933C77.7188 38.1638 77.4371 38.6166 77.2285 39.1517C77.0199 39.6868 76.9156 40.2837 76.9156 40.9423C76.9156 41.6009 77.0199 42.1978 77.2285 42.7329C77.4371 43.268 77.7188 43.7208 78.0734 44.0913C78.449 44.4617 78.8766 44.7499 79.3565 44.9557C79.8363 45.1615 80.3474 45.2644 80.8899 45.2644C81.7452 45.2644 82.465 45.0792 83.0491 44.7087C83.6541 44.3177 84.134 43.762 84.4886 43.0416L88.2439 44.647Z" fill="#32333D"/>
<path d="M100.043 46.9007H99.7925C99.3126 47.477 98.7285 47.9709 98.04 48.3826C97.3724 48.7942 96.5066 49 95.4426 49C94.6499 49 93.8988 48.8662 93.1895 48.5987C92.501 48.3517 91.896 48.0018 91.3745 47.549C90.8529 47.0962 90.4461 46.5508 90.154 45.9128C89.8619 45.2747 89.7159 44.5749 89.7159 43.8134C89.7159 43.0313 89.8724 42.3315 90.1853 41.7141C90.4982 41.0761 90.9363 40.5306 91.4996 40.0779C92.0629 39.6251 92.7201 39.2855 93.4711 39.0591C94.243 38.8121 95.0775 38.6886 95.9746 38.6886C96.976 38.6886 97.8001 38.7709 98.4468 38.9356C99.0936 39.0796 99.6256 39.234 100.043 39.3987V38.9356C100.043 38.1329 99.7194 37.4743 99.0727 36.9597C98.426 36.4246 97.6228 36.157 96.6631 36.157C95.2444 36.157 94.0449 36.7436 93.0643 37.9168L90.0914 35.9101C91.7187 33.8931 93.9405 32.8846 96.757 32.8846C99.1353 32.8846 100.95 33.4403 102.202 34.5517C103.454 35.6425 104.08 37.2685 104.08 39.4295V48.506H100.043V46.9007ZM100.043 42.3624C99.563 42.136 99.0623 41.9611 98.5407 41.8376C98.04 41.6935 97.4872 41.6215 96.8821 41.6215C95.9016 41.6215 95.1401 41.8376 94.5977 42.2698C94.0761 42.6814 93.8154 43.196 93.8154 43.8134C93.8154 44.4309 94.0657 44.9248 94.5664 45.2953C95.088 45.6658 95.6826 45.851 96.3502 45.851C96.8926 45.851 97.3933 45.7584 97.8522 45.5732C98.3112 45.3673 98.6972 45.1101 99.0101 44.8013C99.3439 44.472 99.5943 44.1016 99.7612 43.6899C99.9489 43.2577 100.043 42.8152 100.043 42.3624Z" fill="#32333D"/>
<path d="M108.723 36.8362H106.032V33.3785H108.723V28.7477H112.823V33.3785H116.578V36.8362H112.823V42.702C112.823 43.0519 112.854 43.3812 112.917 43.6899C113 43.9781 113.146 44.2251 113.355 44.4309C113.647 44.7602 114.064 44.9248 114.607 44.9248C114.961 44.9248 115.243 44.894 115.452 44.8322C115.66 44.7499 115.858 44.647 116.046 44.5235L117.204 48.0738C116.724 48.3002 116.203 48.4649 115.639 48.5678C115.097 48.6913 114.492 48.753 113.824 48.753C113.052 48.753 112.353 48.6398 111.728 48.4134C111.123 48.1664 110.611 47.8371 110.194 47.4255C109.214 46.4993 108.723 45.1821 108.723 43.4738V36.8362Z" fill="#32333D"/>
<path d="M122.031 31.1866C121.676 31.1866 121.332 31.1248 120.998 31.0013C120.685 30.8573 120.404 30.672 120.153 30.4456C119.924 30.1987 119.736 29.9208 119.59 29.6121C119.465 29.3034 119.402 28.9638 119.402 28.5933C119.402 28.2228 119.465 27.8832 119.59 27.5745C119.736 27.2658 119.924 26.9982 120.153 26.7718C120.404 26.5248 120.685 26.3396 120.998 26.2161C121.332 26.072 121.676 26 122.031 26C122.761 26 123.387 26.2573 123.909 26.7718C124.43 27.2658 124.691 27.8729 124.691 28.5933C124.691 29.3136 124.43 29.9311 123.909 30.4456C123.387 30.9396 122.761 31.1866 122.031 31.1866ZM119.997 48.506V33.3785H124.096V48.506H119.997Z" fill="#32333D"/>
<path d="M134.952 32.8846C136.142 32.8846 137.226 33.0904 138.207 33.502C139.208 33.8931 140.064 34.4488 140.773 35.1691C141.503 35.8689 142.066 36.7128 142.463 37.7007C142.88 38.6886 143.089 39.7691 143.089 40.9423C143.089 42.1154 142.88 43.196 142.463 44.1839C142.066 45.1718 141.503 46.026 140.773 46.7463C140.064 47.4461 139.208 48.0018 138.207 48.4134C137.226 48.8045 136.142 49 134.952 49C133.763 49 132.668 48.8045 131.667 48.4134C130.686 48.0018 129.831 47.4461 129.1 46.7463C128.391 46.026 127.828 45.1718 127.411 44.1839C127.014 43.196 126.816 42.1154 126.816 40.9423C126.816 39.7691 127.014 38.6886 127.411 37.7007C127.828 36.7128 128.391 35.8689 129.1 35.1691C129.831 34.4488 130.686 33.8931 131.667 33.502C132.668 33.0904 133.763 32.8846 134.952 32.8846ZM134.952 45.2644C135.474 45.2644 135.975 45.1718 136.454 44.9866C136.955 44.7808 137.393 44.4926 137.769 44.1221C138.144 43.7517 138.436 43.2989 138.645 42.7638C138.874 42.2286 138.989 41.6215 138.989 40.9423C138.989 40.2631 138.874 39.6559 138.645 39.1208C138.436 38.5857 138.144 38.1329 137.769 37.7624C137.393 37.3919 136.955 37.1141 136.454 36.9289C135.975 36.723 135.474 36.6201 134.952 36.6201C134.41 36.6201 133.899 36.723 133.419 36.9289C132.939 37.1141 132.511 37.3919 132.136 37.7624C131.76 38.1329 131.458 38.5857 131.228 39.1208C131.02 39.6559 130.915 40.2631 130.915 40.9423C130.915 41.6215 131.02 42.2286 131.228 42.7638C131.458 43.2989 131.76 43.7517 132.136 44.1221C132.511 44.4926 132.939 44.7808 133.419 44.9866C133.899 45.1718 134.41 45.2644 134.952 45.2644Z" fill="#32333D"/>
<path d="M149.266 35.3544H149.517C149.996 34.5928 150.643 33.996 151.457 33.5638C152.27 33.111 153.199 32.8846 154.242 32.8846C155.202 32.8846 156.047 33.0389 156.777 33.3477C157.507 33.6564 158.102 34.0989 158.561 34.6752C159.04 35.2309 159.395 35.9101 159.624 36.7128C159.875 37.4949 160 38.3696 160 39.3369V48.506H155.901V39.8309C155.901 38.74 155.65 37.9374 155.149 37.4228C154.67 36.8877 153.96 36.6201 153.022 36.6201C152.458 36.6201 151.958 36.7436 151.519 36.9906C151.102 37.217 150.737 37.536 150.424 37.9477C150.132 38.3387 149.903 38.8121 149.736 39.3678C149.59 39.9029 149.517 40.4792 149.517 41.0966V48.506H145.417V33.3785H149.266V35.3544Z" fill="#32333D"/>
<path d="M210.049 30.346C210.049 31.724 209.59 32.8767 208.671 33.804C207.744 34.74 206.608 35.208 205.265 35.208C203.913 35.208 202.778 34.74 201.859 33.804C200.94 32.8767 200.481 31.724 200.481 30.346C200.481 28.968 200.94 27.8153 201.859 26.888C202.778 25.952 203.913 25.484 205.265 25.484C206.617 25.484 207.752 25.9563 208.671 26.901C209.59 27.8283 210.049 28.9767 210.049 30.346ZM201.703 30.346C201.703 31.4207 202.041 32.309 202.717 33.011C203.402 33.713 204.251 34.064 205.265 34.064C206.279 34.064 207.124 33.713 207.8 33.011C208.485 32.3177 208.827 31.4293 208.827 30.346C208.827 29.2627 208.485 28.3743 207.8 27.681C207.124 26.979 206.279 26.628 205.265 26.628C204.251 26.628 203.402 26.979 202.717 27.681C202.041 28.383 201.703 29.2713 201.703 30.346ZM211.189 28.63H212.333V29.514H212.385C212.567 29.202 212.844 28.942 213.217 28.734C213.598 28.526 213.993 28.422 214.4 28.422C215.18 28.422 215.778 28.6473 216.194 29.098C216.619 29.54 216.831 30.1727 216.831 30.996V35H215.635V31.074C215.609 30.034 215.085 29.514 214.062 29.514C213.585 29.514 213.187 29.709 212.866 30.099C212.545 30.4803 212.385 30.9397 212.385 31.477V35H211.189V28.63ZM221.095 35.208C220.159 35.208 219.388 34.8873 218.781 34.246C218.174 33.6047 217.871 32.7943 217.871 31.815C217.871 30.8443 218.166 30.0383 218.755 29.397C219.344 28.747 220.098 28.422 221.017 28.422C221.962 28.422 222.711 28.7297 223.266 29.345C223.829 29.9517 224.111 30.8053 224.111 31.906L224.098 32.036H219.093C219.11 32.66 219.318 33.1627 219.717 33.544C220.116 33.9253 220.592 34.116 221.147 34.116C221.91 34.116 222.508 33.7347 222.941 32.972L224.007 33.492C223.721 34.0293 223.322 34.4497 222.811 34.753C222.308 35.0563 221.736 35.208 221.095 35.208ZM219.184 31.048H222.837C222.802 30.606 222.62 30.242 222.291 29.956C221.97 29.6613 221.537 29.514 220.991 29.514C220.54 29.514 220.15 29.6527 219.821 29.93C219.5 30.2073 219.288 30.58 219.184 31.048ZM231.181 34.116C231.753 34.116 232.234 33.8993 232.624 33.466C233.014 33.0413 233.209 32.491 233.209 31.815C233.209 31.1477 233.014 30.5973 232.624 30.164C232.234 29.7307 231.753 29.514 231.181 29.514C230.6 29.514 230.115 29.7307 229.725 30.164C229.344 30.5973 229.153 31.1477 229.153 31.815C229.153 32.491 229.344 33.0457 229.725 33.479C230.115 33.9037 230.6 34.116 231.181 34.116ZM231.376 35.208C230.908 35.208 230.479 35.1083 230.089 34.909C229.708 34.7097 229.413 34.4453 229.205 34.116H229.153L229.205 35V37.808H228.009V28.63H229.153V29.514H229.205C229.413 29.1847 229.708 28.9203 230.089 28.721C230.479 28.5217 230.908 28.422 231.376 28.422C232.217 28.422 232.927 28.7513 233.508 29.41C234.106 30.0773 234.405 30.879 234.405 31.815C234.405 32.7597 234.106 33.5613 233.508 34.22C232.927 34.8787 232.217 35.208 231.376 35.208ZM236.57 25.692V35H235.374V25.692H236.57ZM238.834 33.05C238.834 33.362 238.964 33.622 239.224 33.83C239.493 34.038 239.805 34.142 240.16 34.142C240.663 34.142 241.109 33.9557 241.499 33.583C241.898 33.2103 242.097 32.7727 242.097 32.27C241.725 31.9753 241.205 31.828 240.537 31.828C240.052 31.828 239.645 31.945 239.315 32.179C238.995 32.413 238.834 32.7033 238.834 33.05ZM240.381 28.422C241.265 28.422 241.963 28.6603 242.474 29.137C242.986 29.605 243.241 30.2507 243.241 31.074V35H242.097V34.116H242.045C241.551 34.844 240.893 35.208 240.069 35.208C239.367 35.208 238.778 35 238.301 34.584C237.833 34.168 237.599 33.648 237.599 33.024C237.599 32.3653 237.846 31.841 238.34 31.451C238.843 31.061 239.51 30.866 240.342 30.866C241.053 30.866 241.638 30.996 242.097 31.256V30.983C242.097 30.567 241.933 30.216 241.603 29.93C241.274 29.6353 240.888 29.488 240.446 29.488C239.779 29.488 239.25 29.7697 238.86 30.333L237.807 29.67C238.388 28.838 239.246 28.422 240.381 28.422ZM246.985 35.104C246.474 35.104 246.045 34.9437 245.698 34.623C245.352 34.3023 245.174 33.856 245.165 33.284V29.722H244.047V28.63H245.165V26.68H246.361V28.63H249.221V27.707C249.221 27.0743 249.421 26.563 249.819 26.173C250.227 25.783 250.747 25.588 251.379 25.588C251.813 25.588 252.168 25.6617 252.445 25.809L252.12 26.862C251.912 26.758 251.678 26.706 251.418 26.706C251.124 26.706 250.881 26.81 250.69 27.018C250.508 27.2173 250.417 27.486 250.417 27.824V28.63H252.081V29.722H250.417V35H249.221V29.722H246.361V32.933C246.361 33.3057 246.435 33.5743 246.582 33.739C246.738 33.9037 246.92 33.986 247.128 33.986C247.328 33.986 247.518 33.947 247.7 33.869L248.077 34.935C247.757 35.0477 247.393 35.104 246.985 35.104ZM252.466 31.815C252.466 30.8357 252.773 30.0253 253.389 29.384C254.013 28.7427 254.797 28.422 255.742 28.422C256.686 28.422 257.466 28.7427 258.082 29.384C258.706 30.0253 259.018 30.8357 259.018 31.815C259.018 32.803 258.706 33.6133 258.082 34.246C257.466 34.8873 256.686 35.208 255.742 35.208C254.797 35.208 254.013 34.8873 253.389 34.246C252.773 33.6047 252.466 32.7943 252.466 31.815ZM253.662 31.815C253.662 32.4997 253.861 33.0543 254.26 33.479C254.658 33.9037 255.152 34.116 255.742 34.116C256.331 34.116 256.825 33.9037 257.224 33.479C257.622 33.0543 257.822 32.4997 257.822 31.815C257.822 31.139 257.622 30.5887 257.224 30.164C256.816 29.7307 256.322 29.514 255.742 29.514C255.161 29.514 254.667 29.7307 254.26 30.164C253.861 30.5887 253.662 31.139 253.662 31.815ZM261.173 35H259.977V28.63H261.121V29.67H261.173C261.294 29.332 261.541 29.046 261.914 28.812C262.295 28.5693 262.668 28.448 263.032 28.448C263.379 28.448 263.673 28.5 263.916 28.604L263.552 29.761C263.405 29.7003 263.171 29.67 262.85 29.67C262.399 29.67 262.005 29.852 261.667 30.216C261.338 30.58 261.173 31.0047 261.173 31.49V35ZM265.896 35H264.7V28.63H265.844V29.514H265.896C266.078 29.202 266.355 28.942 266.728 28.734C267.109 28.526 267.486 28.422 267.859 28.422C268.327 28.422 268.738 28.5303 269.094 28.747C269.449 28.9637 269.709 29.2627 269.874 29.644C270.402 28.8293 271.135 28.422 272.071 28.422C272.807 28.422 273.375 28.6473 273.774 29.098C274.172 29.5487 274.372 30.19 274.372 31.022V35H273.176V31.204C273.176 30.606 273.067 30.177 272.851 29.917C272.634 29.6483 272.27 29.514 271.759 29.514C271.299 29.514 270.914 29.709 270.602 30.099C270.29 30.489 270.134 30.9483 270.134 31.477V35H268.938V31.204C268.938 30.606 268.829 30.177 268.613 29.917C268.396 29.6483 268.032 29.514 267.521 29.514C267.061 29.514 266.676 29.709 266.364 30.099C266.052 30.489 265.896 30.9483 265.896 31.477V35ZM279.822 35H278.626V28.63H279.77V29.514H279.822C280.004 29.202 280.282 28.942 280.654 28.734C281.036 28.526 281.413 28.422 281.785 28.422C282.253 28.422 282.665 28.5303 283.02 28.747C283.376 28.9637 283.636 29.2627 283.8 29.644C284.329 28.8293 285.061 28.422 285.997 28.422C286.734 28.422 287.302 28.6473 287.7 29.098C288.099 29.5487 288.298 30.19 288.298 31.022V35H287.102V31.204C287.102 30.606 286.994 30.177 286.777 29.917C286.561 29.6483 286.197 29.514 285.685 29.514C285.226 29.514 284.84 29.709 284.528 30.099C284.216 30.489 284.06 30.9483 284.06 31.477V35H282.864V31.204C282.864 30.606 282.756 30.177 282.539 29.917C282.323 29.6483 281.959 29.514 281.447 29.514C280.988 29.514 280.602 29.709 280.29 30.099C279.978 30.489 279.822 30.9483 279.822 31.477V35ZM292.557 35.208C291.621 35.208 290.849 34.8873 290.243 34.246C289.636 33.6047 289.333 32.7943 289.333 31.815C289.333 30.8443 289.627 30.0383 290.217 29.397C290.806 28.747 291.56 28.422 292.479 28.422C293.423 28.422 294.173 28.7297 294.728 29.345C295.291 29.9517 295.573 30.8053 295.573 31.906L295.56 32.036H290.555C290.572 32.66 290.78 33.1627 291.179 33.544C291.577 33.9253 292.054 34.116 292.609 34.116C293.371 34.116 293.969 33.7347 294.403 32.972L295.469 33.492C295.183 34.0293 294.784 34.4497 294.273 34.753C293.77 35.0563 293.198 35.208 292.557 35.208ZM290.646 31.048H294.299C294.264 30.606 294.082 30.242 293.753 29.956C293.432 29.6613 292.999 29.514 292.453 29.514C292.002 29.514 291.612 29.6527 291.283 29.93C290.962 30.2073 290.75 30.58 290.646 31.048ZM299.59 35.208C298.654 35.208 297.883 34.8873 297.276 34.246C296.669 33.6047 296.366 32.7943 296.366 31.815C296.366 30.8443 296.661 30.0383 297.25 29.397C297.839 28.747 298.593 28.422 299.512 28.422C300.457 28.422 301.206 28.7297 301.761 29.345C302.324 29.9517 302.606 30.8053 302.606 31.906L302.593 32.036H297.588C297.605 32.66 297.813 33.1627 298.212 33.544C298.611 33.9253 299.087 34.116 299.642 34.116C300.405 34.116 301.003 33.7347 301.436 32.972L302.502 33.492C302.216 34.0293 301.817 34.4497 301.306 34.753C300.803 35.0563 300.231 35.208 299.59 35.208ZM297.679 31.048H301.332C301.297 30.606 301.115 30.242 300.786 29.956C300.465 29.6613 300.032 29.514 299.486 29.514C299.035 29.514 298.645 29.6527 298.316 29.93C297.995 30.2073 297.783 30.58 297.679 31.048ZM306.031 35.104C305.511 35.104 305.078 34.9437 304.731 34.623C304.393 34.3023 304.22 33.856 304.211 33.284V29.722H303.093V28.63H304.211V26.68H305.407V28.63H306.967V29.722H305.407V32.894C305.407 33.3187 305.49 33.609 305.654 33.765C305.819 33.9123 306.005 33.986 306.213 33.986C306.309 33.986 306.4 33.9773 306.486 33.96C306.582 33.934 306.668 33.9037 306.746 33.869L307.123 34.935C306.811 35.0477 306.447 35.104 306.031 35.104ZM309.715 26.433C309.715 26.667 309.633 26.8663 309.468 27.031C309.304 27.1957 309.104 27.278 308.87 27.278C308.636 27.278 308.437 27.1957 308.272 27.031C308.108 26.8663 308.025 26.667 308.025 26.433C308.025 26.199 308.108 25.9997 308.272 25.835C308.437 25.6703 308.636 25.588 308.87 25.588C309.104 25.588 309.304 25.6703 309.468 25.835C309.633 25.9997 309.715 26.199 309.715 26.433ZM309.468 28.63V35H308.272V28.63H309.468ZM311.025 28.63H312.169V29.514H312.221C312.403 29.202 312.68 28.942 313.053 28.734C313.434 28.526 313.829 28.422 314.236 28.422C315.016 28.422 315.614 28.6473 316.03 29.098C316.455 29.54 316.667 30.1727 316.667 30.996V35H315.471V31.074C315.445 30.034 314.921 29.514 313.898 29.514C313.421 29.514 313.023 29.709 312.702 30.099C312.381 30.4803 312.221 30.9397 312.221 31.477V35H311.025V28.63ZM320.867 34.116C321.457 34.116 321.938 33.9037 322.31 33.479C322.7 33.0543 322.895 32.4997 322.895 31.815C322.895 31.1477 322.7 30.5973 322.31 30.164C321.929 29.7307 321.448 29.514 320.867 29.514C320.295 29.514 319.814 29.7307 319.424 30.164C319.034 30.5973 318.839 31.1477 318.839 31.815C318.839 32.491 319.034 33.0413 319.424 33.466C319.814 33.8993 320.295 34.116 320.867 34.116ZM320.828 38.016C320.473 38.016 320.139 37.9683 319.827 37.873C319.515 37.7863 319.229 37.6607 318.969 37.496C318.718 37.3313 318.501 37.1363 318.319 36.911C318.137 36.6857 317.999 36.4343 317.903 36.157L319.034 35.689C319.164 36.0617 319.39 36.3607 319.71 36.586C320.031 36.8113 320.404 36.924 320.828 36.924C321.478 36.924 321.985 36.729 322.349 36.339C322.713 35.949 322.895 35.4117 322.895 34.727V34.116H322.843C322.618 34.454 322.31 34.7227 321.92 34.922C321.539 35.1127 321.123 35.208 320.672 35.208C319.84 35.208 319.125 34.883 318.527 34.233C317.938 33.5657 317.643 32.7597 317.643 31.815C317.643 30.8703 317.938 30.0687 318.527 29.41C319.125 28.7513 319.84 28.422 320.672 28.422C321.123 28.422 321.539 28.5217 321.92 28.721C322.31 28.9117 322.618 29.176 322.843 29.514H322.895V28.63H324.039V34.727C324.039 35.7497 323.749 36.5513 323.168 37.132C322.579 37.7213 321.799 38.016 320.828 38.016ZM329.225 33.05C329.225 33.362 329.355 33.622 329.615 33.83C329.884 34.038 330.196 34.142 330.551 34.142C331.054 34.142 331.5 33.9557 331.89 33.583C332.289 33.2103 332.488 32.7727 332.488 32.27C332.115 31.9753 331.595 31.828 330.928 31.828C330.443 31.828 330.035 31.945 329.706 32.179C329.385 32.413 329.225 32.7033 329.225 33.05ZM330.772 28.422C331.656 28.422 332.354 28.6603 332.865 29.137C333.376 29.605 333.632 30.2507 333.632 31.074V35H332.488V34.116H332.436C331.942 34.844 331.283 35.208 330.46 35.208C329.758 35.208 329.169 35 328.692 34.584C328.224 34.168 327.99 33.648 327.99 33.024C327.99 32.3653 328.237 31.841 328.731 31.451C329.234 31.061 329.901 30.866 330.733 30.866C331.444 30.866 332.029 30.996 332.488 31.256V30.983C332.488 30.567 332.323 30.216 331.994 29.93C331.665 29.6353 331.279 29.488 330.837 29.488C330.17 29.488 329.641 29.7697 329.251 30.333L328.198 29.67C328.779 28.838 329.637 28.422 330.772 28.422ZM336.177 25.692V35H334.981V25.692H336.177ZM338.83 25.692V35H337.634V25.692H338.83ZM206.422 51.63L202.431 60.808H201.196L202.678 57.597L200.052 51.63H201.352L203.25 56.206H203.276L205.122 51.63H206.422ZM206.585 54.815C206.585 53.8357 206.892 53.0253 207.508 52.384C208.132 51.7427 208.916 51.422 209.861 51.422C210.805 51.422 211.585 51.7427 212.201 52.384C212.825 53.0253 213.137 53.8357 213.137 54.815C213.137 55.803 212.825 56.6133 212.201 57.246C211.585 57.8873 210.805 58.208 209.861 58.208C208.916 58.208 208.132 57.8873 207.508 57.246C206.892 56.6047 206.585 55.7943 206.585 54.815ZM207.781 54.815C207.781 55.4997 207.98 56.0543 208.379 56.479C208.777 56.9037 209.271 57.116 209.861 57.116C210.45 57.116 210.944 56.9037 211.343 56.479C211.741 56.0543 211.941 55.4997 211.941 54.815C211.941 54.139 211.741 53.5887 211.343 53.164C210.935 52.7307 210.441 52.514 209.861 52.514C209.28 52.514 208.786 52.7307 208.379 53.164C207.98 53.5887 207.781 54.139 207.781 54.815ZM219.75 58H218.606V57.116H218.554C218.372 57.428 218.09 57.688 217.709 57.896C217.336 58.104 216.946 58.208 216.539 58.208C215.759 58.208 215.156 57.987 214.732 57.545C214.316 57.0943 214.108 56.4573 214.108 55.634V51.63H215.304V55.556C215.33 56.596 215.854 57.116 216.877 57.116C217.353 57.116 217.752 56.9253 218.073 56.544C218.393 56.154 218.554 55.6903 218.554 55.153V51.63H219.75V58ZM222.402 58H221.206V51.63H222.35V52.67H222.402C222.523 52.332 222.77 52.046 223.143 51.812C223.524 51.5693 223.897 51.448 224.261 51.448C224.607 51.448 224.902 51.5 225.145 51.604L224.781 52.761C224.633 52.7003 224.399 52.67 224.079 52.67C223.628 52.67 223.234 52.852 222.896 53.216C222.566 53.58 222.402 54.0047 222.402 54.49V58ZM229.981 58H228.785V51.63H229.929V52.67H229.981C230.102 52.332 230.349 52.046 230.722 51.812C231.103 51.5693 231.476 51.448 231.84 51.448C232.186 51.448 232.481 51.5 232.724 51.604L232.36 52.761C232.212 52.7003 231.978 52.67 231.658 52.67C231.207 52.67 230.813 52.852 230.475 53.216C230.145 53.58 229.981 54.0047 229.981 54.49V58ZM235.974 58.208C235.038 58.208 234.266 57.8873 233.66 57.246C233.053 56.6047 232.75 55.7943 232.75 54.815C232.75 53.8443 233.044 53.0383 233.634 52.397C234.223 51.747 234.977 51.422 235.896 51.422C236.84 51.422 237.59 51.7297 238.145 52.345C238.708 52.9517 238.99 53.8053 238.99 54.906L238.977 55.036H233.972C233.989 55.66 234.197 56.1627 234.596 56.544C234.994 56.9253 235.471 57.116 236.026 57.116C236.788 57.116 237.386 56.7347 237.82 55.972L238.886 56.492C238.6 57.0293 238.201 57.4497 237.69 57.753C237.187 58.0563 236.615 58.208 235.974 58.208ZM234.063 54.048H237.716C237.681 53.606 237.499 53.242 237.17 52.956C236.849 52.6613 236.416 52.514 235.87 52.514C235.419 52.514 235.029 52.6527 234.7 52.93C234.379 53.2073 234.167 53.58 234.063 54.048ZM241.279 48.692V58H240.083V48.692H241.279ZM242.309 54.815C242.309 53.8357 242.617 53.0253 243.232 52.384C243.856 51.7427 244.641 51.422 245.585 51.422C246.53 51.422 247.31 51.7427 247.925 52.384C248.549 53.0253 248.861 53.8357 248.861 54.815C248.861 55.803 248.549 56.6133 247.925 57.246C247.31 57.8873 246.53 58.208 245.585 58.208C244.641 58.208 243.856 57.8873 243.232 57.246C242.617 56.6047 242.309 55.7943 242.309 54.815ZM243.505 54.815C243.505 55.4997 243.705 56.0543 244.103 56.479C244.502 56.9037 244.996 57.116 245.585 57.116C246.175 57.116 246.669 56.9037 247.067 56.479C247.466 56.0543 247.665 55.4997 247.665 54.815C247.665 54.139 247.466 53.5887 247.067 53.164C246.66 52.7307 246.166 52.514 245.585 52.514C245.005 52.514 244.511 52.7307 244.103 53.164C243.705 53.5887 243.505 54.139 243.505 54.815ZM252.86 58.208C251.915 58.208 251.131 57.8873 250.507 57.246C249.891 56.5873 249.584 55.777 249.584 54.815C249.584 53.8357 249.891 53.0253 250.507 52.384C251.131 51.7427 251.915 51.422 252.86 51.422C253.51 51.422 254.077 51.5867 254.563 51.916C255.048 52.2367 255.412 52.683 255.655 53.255L254.563 53.71C254.225 52.9127 253.631 52.514 252.782 52.514C252.236 52.514 251.763 52.735 251.365 53.177C250.975 53.619 250.78 54.165 250.78 54.815C250.78 55.465 250.975 56.011 251.365 56.453C251.763 56.895 252.236 57.116 252.782 57.116C253.657 57.116 254.272 56.7173 254.628 55.92L255.694 56.375C255.46 56.947 255.091 57.3977 254.589 57.727C254.095 58.0477 253.518 58.208 252.86 58.208ZM257.547 56.05C257.547 56.362 257.677 56.622 257.937 56.83C258.206 57.038 258.518 57.142 258.873 57.142C259.376 57.142 259.822 56.9557 260.212 56.583C260.611 56.2103 260.81 55.7727 260.81 55.27C260.438 54.9753 259.918 54.828 259.25 54.828C258.765 54.828 258.358 54.945 258.028 55.179C257.708 55.413 257.547 55.7033 257.547 56.05ZM259.094 51.422C259.978 51.422 260.676 51.6603 261.187 52.137C261.699 52.605 261.954 53.2507 261.954 54.074V58H260.81V57.116H260.758C260.264 57.844 259.606 58.208 258.782 58.208C258.08 58.208 257.491 58 257.014 57.584C256.546 57.168 256.312 56.648 256.312 56.024C256.312 55.3653 256.559 54.841 257.053 54.451C257.556 54.061 258.223 53.866 259.055 53.866C259.766 53.866 260.351 53.996 260.81 54.256V53.983C260.81 53.567 260.646 53.216 260.316 52.93C259.987 52.6353 259.601 52.488 259.159 52.488C258.492 52.488 257.963 52.7697 257.573 53.333L256.52 52.67C257.101 51.838 257.959 51.422 259.094 51.422ZM265.698 58.104C265.178 58.104 264.745 57.9437 264.398 57.623C264.06 57.3023 263.887 56.856 263.878 56.284V52.722H262.76V51.63H263.878V49.68H265.074V51.63H266.634V52.722H265.074V55.894C265.074 56.3187 265.157 56.609 265.321 56.765C265.486 56.9123 265.672 56.986 265.88 56.986C265.976 56.986 266.067 56.9773 266.153 56.96C266.249 56.934 266.335 56.9037 266.413 56.869L266.79 57.935C266.478 58.0477 266.114 58.104 265.698 58.104ZM269.382 49.433C269.382 49.667 269.3 49.8663 269.135 50.031C268.971 50.1957 268.771 50.278 268.537 50.278C268.303 50.278 268.104 50.1957 267.939 50.031C267.775 49.8663 267.692 49.667 267.692 49.433C267.692 49.199 267.775 48.9997 267.939 48.835C268.104 48.6703 268.303 48.588 268.537 48.588C268.771 48.588 268.971 48.6703 269.135 48.835C269.3 48.9997 269.382 49.199 269.382 49.433ZM269.135 51.63V58H267.939V51.63H269.135ZM270.264 54.815C270.264 53.8357 270.572 53.0253 271.187 52.384C271.811 51.7427 272.596 51.422 273.54 51.422C274.485 51.422 275.265 51.7427 275.88 52.384C276.504 53.0253 276.816 53.8357 276.816 54.815C276.816 55.803 276.504 56.6133 275.88 57.246C275.265 57.8873 274.485 58.208 273.54 58.208C272.596 58.208 271.811 57.8873 271.187 57.246C270.572 56.6047 270.264 55.7943 270.264 54.815ZM271.46 54.815C271.46 55.4997 271.66 56.0543 272.058 56.479C272.457 56.9037 272.951 57.116 273.54 57.116C274.13 57.116 274.624 56.9037 275.022 56.479C275.421 56.0543 275.62 55.4997 275.62 54.815C275.62 54.139 275.421 53.5887 275.022 53.164C274.615 52.7307 274.121 52.514 273.54 52.514C272.96 52.514 272.466 52.7307 272.058 53.164C271.66 53.5887 271.46 54.139 271.46 54.815ZM277.776 51.63H278.92V52.514H278.972C279.154 52.202 279.431 51.942 279.804 51.734C280.185 51.526 280.58 51.422 280.987 51.422C281.767 51.422 282.365 51.6473 282.781 52.098C283.206 52.54 283.418 53.1727 283.418 53.996V58H282.222V54.074C282.196 53.034 281.672 52.514 280.649 52.514C280.172 52.514 279.774 52.709 279.453 53.099C279.132 53.4803 278.972 53.9397 278.972 54.477V58H277.776V51.63ZM287.678 51.63H288.822V52.514H288.874C289.056 52.202 289.334 51.942 289.706 51.734C290.088 51.526 290.482 51.422 290.889 51.422C291.669 51.422 292.267 51.6473 292.683 52.098C293.108 52.54 293.32 53.1727 293.32 53.996V58H292.124V54.074C292.098 53.034 291.574 52.514 290.551 52.514C290.075 52.514 289.676 52.709 289.355 53.099C289.035 53.4803 288.874 53.9397 288.874 54.477V58H287.678V51.63ZM297.584 58.208C296.648 58.208 295.877 57.8873 295.27 57.246C294.663 56.6047 294.36 55.7943 294.36 54.815C294.36 53.8443 294.655 53.0383 295.244 52.397C295.833 51.747 296.587 51.422 297.506 51.422C298.451 51.422 299.2 51.7297 299.755 52.345C300.318 52.9517 300.6 53.8053 300.6 54.906L300.587 55.036H295.582C295.599 55.66 295.807 56.1627 296.206 56.544C296.605 56.9253 297.081 57.116 297.636 57.116C298.399 57.116 298.997 56.7347 299.43 55.972L300.496 56.492C300.21 57.0293 299.811 57.4497 299.3 57.753C298.797 58.0563 298.225 58.208 297.584 58.208ZM295.673 54.048H299.326C299.291 53.606 299.109 53.242 298.78 52.956C298.459 52.6613 298.026 52.514 297.48 52.514C297.029 52.514 296.639 52.6527 296.31 52.93C295.989 53.2073 295.777 53.58 295.673 54.048ZM304.617 58.208C303.681 58.208 302.91 57.8873 302.303 57.246C301.697 56.6047 301.393 55.7943 301.393 54.815C301.393 53.8443 301.688 53.0383 302.277 52.397C302.867 51.747 303.621 51.422 304.539 51.422C305.484 51.422 306.234 51.7297 306.788 52.345C307.352 52.9517 307.633 53.8053 307.633 54.906L307.62 55.036H302.615C302.633 55.66 302.841 56.1627 303.239 56.544C303.638 56.9253 304.115 57.116 304.669 57.116C305.432 57.116 306.03 56.7347 306.463 55.972L307.529 56.492C307.243 57.0293 306.845 57.4497 306.333 57.753C305.831 58.0563 305.259 58.208 304.617 58.208ZM302.706 54.048H306.359C306.325 53.606 306.143 53.242 305.813 52.956C305.493 52.6613 305.059 52.514 304.513 52.514C304.063 52.514 303.673 52.6527 303.343 52.93C303.023 53.2073 302.81 53.58 302.706 54.048ZM311.651 57.116C312.24 57.116 312.721 56.9037 313.094 56.479C313.484 56.0543 313.679 55.4997 313.679 54.815C313.679 54.1477 313.484 53.5973 313.094 53.164C312.712 52.7307 312.231 52.514 311.651 52.514C311.079 52.514 310.598 52.7307 310.208 53.164C309.818 53.5973 309.623 54.1477 309.623 54.815C309.623 55.491 309.818 56.0413 310.208 56.466C310.598 56.8993 311.079 57.116 311.651 57.116ZM311.456 58.208C310.624 58.208 309.909 57.8787 309.311 57.22C308.721 56.5527 308.427 55.751 308.427 54.815C308.427 53.879 308.721 53.0773 309.311 52.41C309.909 51.7513 310.624 51.422 311.456 51.422C311.924 51.422 312.348 51.5217 312.73 51.721C313.12 51.9203 313.419 52.1847 313.627 52.514H313.679L313.627 51.63V48.692H314.823V58H313.679V57.116H313.627C313.419 57.4453 313.12 57.7097 312.73 57.909C312.348 58.1083 311.924 58.208 311.456 58.208ZM321.092 56.232C321.092 56.7867 320.85 57.2547 320.364 57.636C319.879 58.0173 319.268 58.208 318.531 58.208C317.89 58.208 317.327 58.0433 316.841 57.714C316.356 57.376 316.009 56.934 315.801 56.388L316.867 55.933C317.023 56.3143 317.249 56.6133 317.543 56.83C317.847 57.038 318.176 57.142 318.531 57.142C318.913 57.142 319.229 57.0597 319.48 56.895C319.74 56.7303 319.87 56.5353 319.87 56.31C319.87 55.9027 319.558 55.6037 318.934 55.413L317.842 55.14C316.603 54.828 315.983 54.23 315.983 53.346C315.983 52.7653 316.217 52.3017 316.685 51.955C317.162 51.5997 317.769 51.422 318.505 51.422C319.069 51.422 319.576 51.5563 320.026 51.825C320.486 52.0937 320.806 52.4533 320.988 52.904L319.922 53.346C319.801 53.0773 319.602 52.8693 319.324 52.722C319.056 52.566 318.752 52.488 318.414 52.488C318.102 52.488 317.821 52.566 317.569 52.722C317.327 52.878 317.205 53.0687 317.205 53.294C317.205 53.658 317.548 53.918 318.232 54.074L319.194 54.321C320.46 54.633 321.092 55.27 321.092 56.232Z" fill="#5B6574"/>
<line x1="178.5" y1="8" x2="178.5" y2="79" stroke="#BFCCDF"/>
<defs>
<linearGradient id="paint0_linear_1502_9" x1="47" y1="77" x2="127" y2="77" gradientUnits="userSpaceOnUse">
<stop stop-color="#95DC78"/>
<stop offset="1" stop-color="#E2F6DA"/>
</linearGradient>
<linearGradient id="paint1_linear_1502_9" x1="54" y1="26" x2="127" y2="26" gradientUnits="userSpaceOnUse">
<stop stop-color="#FFEBDC"/>
<stop offset="1" stop-color="#FFBB8A"/>
</linearGradient>
</defs>
</svg>
