<svg width="88" height="47" viewBox="0 0 88 47" fill="none" xmlns="http://www.w3.org/2000/svg">
<path d="M72.0499 31.2C69.0097 38.6347 61.9048 43.85 53.6249 43.85C45.3451 43.85 38.2402 38.6347 35.2 31.2" stroke="url(#paint0_linear_1548_194)" stroke-width="5.05" stroke-linecap="round"/>
<path d="M72.05 15.7999C69.0097 8.36516 61.9048 3.1499 53.6249 3.1499C45.3451 3.1499 38.2402 8.36516 35.2 15.7999" stroke="url(#paint1_linear_1548_194)" stroke-width="5.05" stroke-linecap="round"/>
<path d="M3.60393 28.3828C3.05945 28.3828 2.5625 28.2975 2.11309 28.127C1.67233 27.9479 1.29638 27.6921 0.985246 27.3596C0.674116 27.0271 0.432125 26.6264 0.259275 26.1574C0.0864251 25.68 0 25.1385 0 24.5332V19.021H1.75011V24.6355C1.75011 24.9424 1.789 25.2238 1.86678 25.4796C1.94456 25.7354 2.06124 25.9571 2.2168 26.1446C2.37237 26.3322 2.56683 26.4814 2.80017 26.5923C3.03352 26.6946 3.30144 26.7457 3.60393 26.7457C3.91506 26.7457 4.1873 26.6946 4.42064 26.5923C4.65399 26.4814 4.84845 26.3322 5.00401 26.1446C5.15958 25.9571 5.27625 25.7354 5.35403 25.4796C5.43182 25.2238 5.47071 24.9424 5.47071 24.6355V19.021H7.22082V24.5332C7.22082 25.1044 7.13439 25.6288 6.96154 26.1063C6.79733 26.5752 6.55534 26.9802 6.23557 27.3212C5.92444 27.6538 5.54417 27.9138 5.09476 28.1014C4.65399 28.289 4.15705 28.3828 3.60393 28.3828Z" fill="#32333D"/>
<path d="M8.87947 19.021H12.263C12.7297 19.021 13.1532 19.0935 13.5335 19.2384C13.9137 19.3834 14.2378 19.5837 14.5057 19.8395C14.7823 20.0953 14.994 20.4022 15.141 20.7603C15.2879 21.1099 15.3614 21.4936 15.3614 21.9114C15.3614 22.2183 15.3095 22.5082 15.2058 22.781C15.1021 23.0454 14.9595 23.2884 14.778 23.51C14.5965 23.7232 14.3847 23.915 14.1428 24.0856C13.9008 24.2476 13.6458 24.3754 13.3779 24.4692L13.3649 24.5588L15.854 28.0758V28.1781H13.8446L11.4463 24.7378H10.6296V28.1781H8.87947V19.021ZM12.25 23.1519C12.6476 23.1519 12.9717 23.0326 13.2223 22.7938C13.4816 22.5551 13.6112 22.2524 13.6112 21.8858C13.6112 21.7238 13.581 21.5661 13.5205 21.4126C13.4686 21.2591 13.3865 21.1227 13.2742 21.0033C13.1618 20.884 13.0192 20.7902 12.8464 20.722C12.6822 20.6452 12.492 20.6069 12.276 20.6069H10.6296V23.1519H12.25Z" fill="#32333D"/>
<path d="M24.9351 26.1745C24.545 26.8537 24.0172 27.4027 23.3517 27.8215C22.6976 28.2404 21.8944 28.4498 20.942 28.4498C20.2995 28.4498 19.7028 28.3423 19.1521 28.1272C18.6128 27.9008 18.1423 27.5895 17.7407 27.1933C17.3391 26.7971 17.0236 26.333 16.7941 25.8009C16.5761 25.2576 16.4671 24.6633 16.4671 24.0181C16.4671 23.4181 16.5761 22.8521 16.7941 22.3201C17.0121 21.7767 17.3162 21.3069 17.7063 20.9107C18.0964 20.5032 18.5554 20.1806 19.0832 19.9429C19.6225 19.7052 20.2134 19.5863 20.856 19.5863C21.533 19.5863 22.1354 19.6995 22.6632 19.9259C23.191 20.141 23.6328 20.4466 23.9885 20.8428C24.3442 21.2277 24.6138 21.6862 24.7974 22.2182C24.981 22.7502 25.0728 23.3275 25.0728 23.9501C25.0728 24.0294 25.0728 24.0973 25.0728 24.1539C25.0613 24.2218 25.0556 24.2841 25.0556 24.3407C25.0441 24.3973 25.0384 24.4595 25.0384 24.5275H18.6873C18.7332 24.8671 18.825 25.1614 18.9627 25.4104C19.1119 25.6481 19.2897 25.8519 19.4963 26.0217C19.7143 26.1802 19.9495 26.299 20.202 26.3783C20.4544 26.4462 20.7126 26.4801 20.9765 26.4801C21.4928 26.4801 21.9174 26.3669 22.2501 26.1405C22.5944 25.9028 22.864 25.6085 23.0591 25.2576L24.9351 26.1745ZM22.8869 22.9483C22.8755 22.8012 22.8238 22.637 22.732 22.4559C22.6517 22.2748 22.5255 22.105 22.3534 21.9465C22.1928 21.788 21.9862 21.6579 21.7338 21.556C21.4928 21.4541 21.2002 21.4032 20.856 21.4032C20.3741 21.4032 19.9495 21.539 19.5823 21.8107C19.2152 22.0824 18.957 22.4616 18.8078 22.9483H22.8869Z" fill="#32333D"/>
<path d="M26.5128 28.1781V16.0205H28.7675V28.1781H26.5128Z" fill="#32333D"/>
<path d="M34.6071 19.5863C35.2611 19.5863 35.8578 19.6995 36.397 19.9259C36.9478 20.141 37.4183 20.4466 37.8084 20.8428C38.21 21.2277 38.5198 21.6918 38.7378 22.2352C38.9673 22.7785 39.082 23.3728 39.082 24.0181C39.082 24.6633 38.9673 25.2576 38.7378 25.8009C38.5198 26.3443 38.21 26.8141 37.8084 27.2103C37.4183 27.5952 36.9478 27.9008 36.397 28.1272C35.8578 28.3423 35.2611 28.4498 34.6071 28.4498C33.953 28.4498 33.3506 28.3423 32.7998 28.1272C32.2605 27.9008 31.7901 27.5952 31.3885 27.2103C30.9984 26.8141 30.6886 26.3443 30.4591 25.8009C30.2411 25.2576 30.1321 24.6633 30.1321 24.0181C30.1321 23.3728 30.2411 22.7785 30.4591 22.2352C30.6886 21.6918 30.9984 21.2277 31.3885 20.8428C31.7901 20.4466 32.2605 20.141 32.7998 19.9259C33.3506 19.6995 33.953 19.5863 34.6071 19.5863ZM34.6071 26.3952C34.8939 26.3952 35.1693 26.3443 35.4332 26.2424C35.7086 26.1292 35.9496 25.9707 36.1561 25.767C36.3626 25.5632 36.5233 25.3142 36.638 25.0199C36.7642 24.7256 36.8273 24.3916 36.8273 24.0181C36.8273 23.6445 36.7642 23.3106 36.638 23.0162C36.5233 22.7219 36.3626 22.4729 36.1561 22.2691C35.9496 22.0654 35.7086 21.9126 35.4332 21.8107C35.1693 21.6975 34.8939 21.6409 34.6071 21.6409C34.3087 21.6409 34.0276 21.6975 33.7637 21.8107C33.4998 21.9126 33.2646 22.0654 33.058 22.2691C32.8515 22.4729 32.6851 22.7219 32.5589 23.0162C32.4441 23.3106 32.3868 23.6445 32.3868 24.0181C32.3868 24.3916 32.4441 24.7256 32.5589 25.0199C32.6851 25.3142 32.8515 25.5632 33.058 25.767C33.2646 25.9707 33.4998 26.1292 33.7637 26.2424C34.0276 26.3443 34.3087 26.3952 34.6071 26.3952Z" fill="#32333D"/>
<path d="M48.5341 26.0556C48.167 26.7575 47.6506 27.3348 46.9851 27.7876C46.3311 28.2291 45.5106 28.4498 44.5238 28.4498C43.8698 28.4498 43.2674 28.3423 42.7166 28.1272C42.1773 27.9008 41.7069 27.5895 41.3053 27.1933C40.9152 26.7971 40.6054 26.333 40.3759 25.8009C40.1579 25.2576 40.0489 24.6633 40.0489 24.0181C40.0489 23.3728 40.1579 22.7785 40.3759 22.2352C40.6054 21.6918 40.9152 21.2277 41.3053 20.8428C41.7069 20.4466 42.1773 20.141 42.7166 19.9259C43.2674 19.6995 43.8698 19.5863 44.5238 19.5863C45.4992 19.5863 46.3196 19.8071 46.9851 20.2485C47.6506 20.69 48.1383 21.2617 48.4481 21.9635L46.3827 22.8125C46.1876 22.4276 45.9352 22.139 45.6254 21.9465C45.327 21.7428 44.9484 21.6409 44.4894 21.6409C44.1911 21.6409 43.91 21.6975 43.6461 21.8107C43.3821 21.9239 43.1469 22.0824 42.9404 22.2861C42.7453 22.4899 42.5904 22.7389 42.4757 23.0332C42.3609 23.3275 42.3036 23.6558 42.3036 24.0181C42.3036 24.3803 42.3609 24.7086 42.4757 25.0029C42.5904 25.2972 42.7453 25.5462 42.9404 25.75C43.1469 25.9538 43.3821 26.1122 43.6461 26.2254C43.91 26.3386 44.1911 26.3952 44.4894 26.3952C44.9599 26.3952 45.3557 26.2934 45.677 26.0896C46.0098 25.8745 46.2737 25.5689 46.4688 25.1727L48.5341 26.0556Z" fill="#32333D"/>
<path d="M55.0235 27.2952H54.8858C54.6219 27.6121 54.3007 27.8838 53.922 28.1102C53.5548 28.3366 53.0786 28.4498 52.4934 28.4498C52.0574 28.4498 51.6443 28.3762 51.2542 28.2291C50.8756 28.0932 50.5428 27.9008 50.256 27.6518C49.9691 27.4027 49.7453 27.1027 49.5847 26.7518C49.4241 26.4009 49.3437 26.016 49.3437 25.5972C49.3437 25.167 49.4298 24.7822 49.6019 24.4426C49.774 24.0916 50.015 23.7917 50.3248 23.5426C50.6346 23.2936 50.996 23.1068 51.4091 22.9823C51.8337 22.8464 52.2926 22.7785 52.786 22.7785C53.3368 22.7785 53.7901 22.8238 54.1458 22.9144C54.5015 22.9936 54.7941 23.0785 55.0235 23.1691V22.9144C55.0235 22.4729 54.8457 22.1107 54.49 21.8277C54.1343 21.5333 53.6925 21.3862 53.1647 21.3862C52.3844 21.3862 51.7247 21.7088 51.1854 22.354L49.5503 21.2503C50.4453 20.141 51.6673 19.5863 53.2163 19.5863C54.5244 19.5863 55.5227 19.892 56.2111 20.5032C56.8996 21.1032 57.2438 21.9975 57.2438 23.186V28.1781H55.0235V27.2952ZM55.0235 24.7991C54.7596 24.6746 54.4842 24.5784 54.1974 24.5105C53.922 24.4312 53.6179 24.3916 53.2852 24.3916C52.7459 24.3916 52.3271 24.5105 52.0287 24.7482C51.7419 24.9746 51.5984 25.2576 51.5984 25.5972C51.5984 25.9368 51.7361 26.2085 52.0115 26.4122C52.2984 26.616 52.6254 26.7179 52.9926 26.7179C53.2909 26.7179 53.5663 26.6669 53.8187 26.565C54.0712 26.4518 54.2834 26.3103 54.4556 26.1405C54.6392 25.9594 54.7768 25.7557 54.8686 25.5293C54.9719 25.2915 55.0235 25.0482 55.0235 24.7991Z" fill="#32333D"/>
<path d="M59.7979 21.7597H58.3177V19.858H59.7979V17.311H62.0526V19.858H64.1179V21.7597H62.0526V24.9859C62.0526 25.1784 62.0698 25.3595 62.1042 25.5293C62.1501 25.6877 62.2304 25.8236 62.3452 25.9368C62.5058 26.1179 62.7353 26.2085 63.0336 26.2085C63.2287 26.2085 63.3836 26.1915 63.4983 26.1575C63.6131 26.1122 63.7221 26.0556 63.8253 25.9877L64.4622 27.9404C64.1983 28.0649 63.9114 28.1555 63.6016 28.2121C63.3033 28.28 62.9705 28.314 62.6033 28.314C62.1788 28.314 61.7944 28.2517 61.4502 28.1272C61.1174 27.9913 60.8363 27.8102 60.6068 27.5838C60.0675 27.0744 59.7979 26.35 59.7979 25.4104V21.7597Z" fill="#32333D"/>
<path d="M67.1171 18.6524C66.922 18.6524 66.7327 18.6185 66.5491 18.5505C66.377 18.4713 66.2221 18.3694 66.0844 18.2449C65.9581 18.1091 65.8549 17.9562 65.7746 17.7864C65.7057 17.6167 65.6713 17.4299 65.6713 17.2261C65.6713 17.0224 65.7057 16.8356 65.7746 16.6658C65.8549 16.496 65.9581 16.3488 66.0844 16.2243C66.2221 16.0885 66.377 15.9866 66.5491 15.9187C66.7327 15.8394 66.922 15.7998 67.1171 15.7998C67.5187 15.7998 67.8629 15.9413 68.1497 16.2243C68.4366 16.496 68.58 16.8299 68.58 17.2261C68.58 17.6223 68.4366 17.9619 68.1497 18.2449C67.8629 18.5166 67.5187 18.6524 67.1171 18.6524ZM65.9983 28.1781V19.858H68.253V28.1781H65.9983Z" fill="#32333D"/>
<path d="M74.2238 19.5863C74.8778 19.5863 75.4745 19.6995 76.0138 19.9259C76.5646 20.141 77.035 20.4466 77.4251 20.8428C77.8267 21.2277 78.1366 21.6918 78.3546 22.2352C78.584 22.7785 78.6988 23.3728 78.6988 24.0181C78.6988 24.6633 78.584 25.2576 78.3546 25.8009C78.1366 26.3443 77.8267 26.8141 77.4251 27.2103C77.035 27.5952 76.5646 27.9008 76.0138 28.1272C75.4745 28.3423 74.8778 28.4498 74.2238 28.4498C73.5698 28.4498 72.9674 28.3423 72.4166 28.1272C71.8773 27.9008 71.4068 27.5952 71.0052 27.2103C70.6151 26.8141 70.3053 26.3443 70.0758 25.8009C69.8578 25.2576 69.7488 24.6633 69.7488 24.0181C69.7488 23.3728 69.8578 22.7785 70.0758 22.2352C70.3053 21.6918 70.6151 21.2277 71.0052 20.8428C71.4068 20.4466 71.8773 20.141 72.4166 19.9259C72.9674 19.6995 73.5698 19.5863 74.2238 19.5863ZM74.2238 26.3952C74.5107 26.3952 74.786 26.3443 75.0499 26.2424C75.3253 26.1292 75.5663 25.9707 75.7728 25.767C75.9794 25.5632 76.14 25.3142 76.2548 25.0199C76.381 24.7256 76.4441 24.3916 76.4441 24.0181C76.4441 23.6445 76.381 23.3106 76.2548 23.0162C76.14 22.7219 75.9794 22.4729 75.7728 22.2691C75.5663 22.0654 75.3253 21.9126 75.0499 21.8107C74.786 21.6975 74.5107 21.6409 74.2238 21.6409C73.9255 21.6409 73.6443 21.6975 73.3804 21.8107C73.1165 21.9126 72.8813 22.0654 72.6748 22.2691C72.4682 22.4729 72.3018 22.7219 72.1756 23.0162C72.0609 23.3106 72.0035 23.6445 72.0035 24.0181C72.0035 24.3916 72.0609 24.7256 72.1756 25.0199C72.3018 25.3142 72.4682 25.5632 72.6748 25.767C72.8813 25.9707 73.1165 26.1292 73.3804 26.2424C73.6443 26.3443 73.9255 26.3952 74.2238 26.3952Z" fill="#32333D"/>
<path d="M82.0965 20.9447H82.2341C82.498 20.5259 82.8538 20.1976 83.3013 19.9599C83.7488 19.7108 84.2594 19.5863 84.8331 19.5863C85.3609 19.5863 85.8256 19.6712 86.2272 19.841C86.6288 20.0108 86.9558 20.2542 87.2083 20.5711C87.4722 20.8768 87.6672 21.2503 87.7935 21.6918C87.9312 22.122 88 22.6031 88 23.1351V28.1781H85.7453V23.4068C85.7453 22.8068 85.6076 22.3654 85.3322 22.0824C85.0683 21.788 84.6782 21.6409 84.1618 21.6409C83.852 21.6409 83.5766 21.7088 83.3357 21.8446C83.1062 21.9692 82.9054 22.1446 82.7333 22.371C82.5726 22.5861 82.4464 22.8464 82.3546 23.1521C82.2743 23.4464 82.2341 23.7634 82.2341 24.103V28.1781H79.9794V19.858H82.0965V20.9447Z" fill="#32333D"/>
<defs>
<linearGradient id="paint0_linear_1548_194" x1="28.05" y1="43.85" x2="72.05" y2="43.85" gradientUnits="userSpaceOnUse">
<stop stop-color="#95DC78"/>
<stop offset="1" stop-color="#E2F6DA"/>
</linearGradient>
<linearGradient id="paint1_linear_1548_194" x1="31.9" y1="15.7999" x2="72.0499" y2="15.7999" gradientUnits="userSpaceOnUse">
<stop stop-color="#FFEBDC"/>
<stop offset="1" stop-color="#FFBB8A"/>
</linearGradient>
</defs>
</svg>
